<?xml version="1.0" standalone="no"?><!DOCTYPE svg PUBLIC "-//W3C//DTD SVG 1.1//EN" "http://www.w3.org/Graphics/SVG/1.1/DTD/svg11.dtd"><svg t="1658114592841" class="icon" viewBox="0 0 1024 1024" version="1.1" xmlns="http://www.w3.org/2000/svg" p-id="4062" width="250" height="250" xmlns:xlink="http://www.w3.org/1999/xlink"><defs><style type="text/css"></style></defs><path d="M512 512m-448 0a448 448 0 1 0 896 0 448 448 0 1 0-896 0Z" fill="#07C160" p-id="4063"></path><path d="M640 542.5h-96v-64h96c17.7 0 32-14.3 32-32s-14.3-32-32-32h-55l75.5-75.5c11.3-11.3 11.3-29.7 0-41s-29.7-11.3-41 0L512 405.5 404.5 298c-11.3-11.3-29.7-11.3-41 0s-11.3 29.7 0 41l75.5 75.5h-55c-17.7 0-32 14.3-32 32s14.3 32 32 32h96v64h-96c-17.7 0-32 14.3-32 32s14.3 32 32 32h96v96c0 17.7 14.3 32 32 32s32-14.3 32-32v-96h96c17.7 0 32-14.3 32-32s-14.3-32-32-32z" fill="#FFFFFF" p-id="4064"></path></svg>